<svg width="12" height="11" viewBox="0 0 12 11" fill="none" xmlns="http://www.w3.org/2000/svg">
<path d="M4.63415 11C4.04878 11 3.43089 10.9383 2.78049 10.8148C2.13008 10.6914 1.54472 10.4938 1.02439 10.2222C0.536585 9.92592 0.211382 9.53086 0.0487805 9.03704C0.0162602 8.96296 0 8.85185 0 8.7037C0 8.35802 0.097561 7.97531 0.292683 7.55556C0.520325 7.1358 0.796748 6.83951 1.12195 6.66667C1.25203 6.61728 1.34959 6.61728 1.41463 6.66667C1.5122 6.71605 1.52846 6.76543 1.46341 6.81482C1.43089 6.88889 1.38211 6.98765 1.31707 7.11111C1.25203 7.20988 1.20325 7.32099 1.17073 7.44444C1.07317 8.08642 1.25203 8.65432 1.70732 9.14815C1.90244 9.34568 2.13008 9.53086 2.39024 9.7037C2.68293 9.87654 2.95935 10.0247 3.21951 10.1481C3.44715 10.2469 3.72358 10.321 4.04878 10.3704C4.37398 10.3951 4.69919 10.4074 5.02439 10.4074C5.54472 10.4074 6.04878 10.358 6.53658 10.2593C7.02439 10.1605 7.38211 10 7.60976 9.77778C8.03252 9.38271 8.2439 8.93827 8.2439 8.44444C8.2439 8.07407 8.11382 7.67901 7.85366 7.25926C7.5935 6.8395 7.18699 6.39506 6.63415 5.92593C6.27642 5.62963 5.93496 5.30864 5.60976 4.96296C5.28455 4.61728 5.07317 4.24691 4.97561 3.85185C4.94309 3.77778 4.91057 3.7037 4.87805 3.62963C4.87805 3.55556 4.87805 3.48148 4.87805 3.40741C4.45528 3.87654 4.01626 4.32099 3.56098 4.74074C3.13821 5.1358 2.76423 5.48148 2.43902 5.77778C2.30894 5.92593 2.19512 6 2.09756 6C2.03252 6 2 5.95062 2 5.85185C2 5.62963 2.13008 5.39506 2.39024 5.14815C2.65041 4.92592 2.94309 4.65432 3.26829 4.33333C3.5935 3.98765 3.85366 3.71605 4.04878 3.51852C4.60163 2.90124 5.00813 2.41975 5.26829 2.07407C5.56098 1.7037 5.86992 1.37037 6.19512 1.07407C6.55285 0.753086 6.99187 0.493827 7.5122 0.296297C8.06504 0.0987656 8.63415 0 9.21951 0C9.90244 0 10.5203 0.0864201 11.0732 0.25926C11.6585 0.407408 11.9675 0.802469 12 1.44444C12 1.74074 11.9187 2.04938 11.7561 2.37037C11.626 2.66667 11.4797 2.95062 11.3171 3.22222C11.2195 3.37037 11.0732 3.48148 10.878 3.55555C10.7154 3.60494 10.6341 3.58025 10.6341 3.48148C10.6341 3.38272 10.6504 3.2716 10.6829 3.14815C10.7154 3.02469 10.7317 2.91358 10.7317 2.81482C10.7317 2.39506 10.6341 2.02469 10.439 1.7037C10.2764 1.35802 10.0325 1.11111 9.70732 0.962962C9.38211 0.790123 9.04065 0.703704 8.68293 0.703704C8.1626 0.703704 7.65854 0.864198 7.17073 1.18519C6.68293 1.48148 6.43902 1.87654 6.43902 2.37037C6.43902 2.41975 6.43902 2.48148 6.43902 2.55556C6.43902 2.62963 6.45528 2.69136 6.4878 2.74074C6.61789 3.1358 7.00813 3.58025 7.65854 4.07407C8.30894 4.5679 8.81301 5 9.17073 5.37037C9.78862 6.01235 10.0976 6.66667 10.0976 7.33333C10.0976 8 9.8374 8.61728 9.31707 9.18518C8.82927 9.72839 8.1626 10.1605 7.31707 10.4815C6.50407 10.8272 5.60976 11 4.63415 11Z" fill="white"/>
</svg>
